<svg width="172" height="256" viewBox="0 0 172 256" fill="none" xmlns="http://www.w3.org/2000/svg">
<circle cx="86" cy="140" r="86" fill="#FB8501"/>
<path d="M70.6191 105.895C66.0293 108.336 62.3672 110.484 59.6328 112.34C56.8984 114.195 54.6035 116.539 52.748 119.371C50.9902 122.203 50.1113 125.621 50.1113 129.625C51.5762 131.773 53.2852 133.482 55.2383 134.752C57.2891 136.021 59.7793 136.9 62.709 137.389C72.9629 139.244 78.0898 144.762 78.0898 153.941C78.0898 159.41 76.1855 163.951 72.377 167.564C68.5684 171.178 63.6367 172.984 57.582 172.984C52.4062 172.984 47.8164 171.715 43.8125 169.176C39.8086 166.637 36.6836 163.072 34.4375 158.482C32.2891 153.893 31.2148 148.668 31.2148 142.809C31.2148 135.68 32.7773 128.697 35.9023 121.861C39.125 114.928 43.7637 109.02 49.8184 104.137C55.873 99.2539 62.9531 96.0801 71.0586 94.6152C73.793 96.8613 75.5508 99.5957 76.332 102.818L70.6191 105.895ZM132.875 105.895C128.285 108.336 124.623 110.484 121.889 112.34C119.154 114.195 116.859 116.539 115.004 119.371C113.246 122.203 112.367 125.621 112.367 129.625C115.102 133.824 119.301 136.412 124.965 137.389C135.121 139.244 140.199 144.762 140.199 153.941C140.199 159.41 138.295 163.951 134.486 167.564C130.775 171.178 125.893 172.984 119.838 172.984C114.662 172.984 110.072 171.715 106.068 169.176C102.064 166.637 98.9395 163.072 96.6934 158.482C94.5449 153.893 93.4707 148.668 93.4707 142.809C93.4707 135.68 95.0332 128.697 98.1582 121.861C101.381 114.928 106.02 109.02 112.074 104.137C118.129 99.2539 125.209 96.0801 133.314 94.6152C136.049 96.8613 137.807 99.5957 138.588 102.818L132.875 105.895Z" fill="#FAFAFA"/>
</svg>
